<?xml version="1.0" standalone="no"?>
<!DOCTYPE svg PUBLIC "-//W3C//DTD SVG 20010904//EN"
 "http://www.w3.org/TR/2001/REC-SVG-20010904/DTD/svg10.dtd">
<svg version="1.0" xmlns="http://www.w3.org/2000/svg"
 width="200.000000pt" height="200.000000pt" viewBox="0 0 200.000000 200.000000"
 preserveAspectRatio="xMidYMid meet">
<metadata>
Created by potrace 1.11, written by Peter Selinger 2001-2013
</metadata>
<g transform="translate(0.000000,200.000000) scale(0.100000,-0.100000)"
fill="#000000" stroke="none">
<path d="M888 1955 c-1 -1 -22 -5 -46 -9 -302 -41 -609 -285 -728 -577 -74
-180 -92 -394 -50 -588 67 -308 331 -595 641 -695 155 -49 382 -57 530 -16
357 97 614 360 701 717 25 102 27 298 4 404 -81 386 -380 679 -769 753 -64 12
-273 21 -283 11z m-8 -370 c0 -159 4 -165 118 -165 120 0 122 2 122 161 0 71
4 129 8 129 19 0 119 -34 171 -57 187 -85 342 -266 391 -454 6 -24 13 -52 16
-61 5 -17 -5 -18 -120 -18 -161 0 -166 -4 -166 -120 0 -116 5 -120 165 -120
l125 0 -6 -27 c-61 -261 -265 -481 -504 -543 -25 -6 -53 -13 -62 -16 -17 -5
-18 5 -18 120 0 161 -4 166 -120 166 -116 0 -120 -5 -120 -165 l0 -124 -32 6
c-108 20 -246 93 -339 181 -92 85 -179 230 -203 337 -4 17 -9 38 -12 48 -5 16
5 17 120 17 161 0 166 4 166 120 0 116 -5 120 -166 120 l-126 0 7 33 c4 17 20
66 36 108 79 207 267 376 483 434 28 8 54 14 59 14 4 1 7 -55 7 -124z"/>
<path d="M930 1164 c-45 -20 -68 -41 -91 -86 -65 -128 52 -281 195 -254 78 15
146 97 146 176 0 41 -29 108 -56 132 -52 46 -132 59 -194 32z"/>
</g>
</svg>
